<?xml version="1.0" encoding="UTF-8"?>
<svg width="364px" height="100px" viewBox="0 0 91 25" version="1.1" xmlns="http://www.w3.org/2000/svg" xmlns:xlink="http://www.w3.org/1999/xlink">
    <g id="Branding" stroke="none" stroke-width="1" fill="none" fill-rule="evenodd">
        <g id="Mugs" transform="translate(-56.000000, -97.000000)">
            <g id="Logo-Mug" transform="translate(0.802389, 0.000000)">
                <g transform="translate(55.385737, 96.394100)">
                    <g id="Group-4-Copy-20" transform="translate(0.110626, 0.773759)" fill="#F44200">
                        <polygon id="Triangle-Copy" points="13.8142643 0.121035915 9.85240073 10.3263 0.16784539 10.3263"></polygon>
                        <polygon id="Triangle-Copy-2" transform="translate(11.321560, 18.317049) scale(-1, -1) translate(-11.321560, -18.317049) " points="18.8506287 12.6865515 14.4789116 23.9475469 3.79249216 23.9475469"></polygon>
                    </g>
                    <path d="M29.1004768,7.67823477 L31.2398861,10.8532446 L31.2398861,10.9744281 L29.2972041,10.9744281 L27.3176358,7.87212849 L25.866772,7.87212849 L25.866772,10.9744281 L24.1822946,10.9744281 L24.1822946,2.49157755 L27.9569995,2.49157755 C28.8340797,2.49157755 29.5328644,2.74606052 30.0533746,3.2550341 C30.5738848,3.76400768 30.8341361,4.39415599 30.8341361,5.14549795 C30.8341361,5.75949782 30.6783952,6.28664112 30.3669087,6.72694366 C30.0554223,7.16724621 29.6332826,7.48434007 29.1004768,7.67823477 Z M25.866772,3.98213558 L25.866772,6.39368882 L27.8709313,6.39368882 C28.2807818,6.39368882 28.5881651,6.27856557 28.7930904,6.04831562 C28.9980157,5.81806566 29.1004768,5.52116886 29.1004768,5.1576163 C29.1004768,4.81830058 28.9959665,4.53756143 28.7869427,4.31539042 C28.5779189,4.09321942 28.2725848,3.98213558 27.8709313,3.98213558 L25.866772,3.98213558 Z M38.3794472,2.49157755 L41.4041293,10.8532446 L41.4041293,10.9744281 L39.5475155,10.9744281 L38.9573336,9.19302952 L35.5883788,9.19302952 L34.9981969,10.9744281 L33.2276514,10.9744281 L33.2276514,10.8532446 L36.240038,2.49157755 L38.3794472,2.49157755 Z M36.080197,7.7267082 L38.4655154,7.7267082 L37.2974471,4.18814767 L37.2482653,4.18814767 L36.080197,7.7267082 Z M44.1419173,10.9744281 L44.1419173,2.49157755 L45.8386902,2.49157755 L45.8386902,10.9744281 L44.1419173,10.9744281 Z M49.351092,10.9744281 L49.351092,2.49157755 L51.0355694,2.49157755 L51.0355694,9.48387011 L55.0070015,9.48387011 L55.0070015,10.9744281 L49.351092,10.9744281 Z M60.6465171,11.0834934 C59.5481175,11.0834934 58.6976904,10.8229513 58.09521,10.3018593 C57.4927297,9.78076727 57.1710018,9.07185042 57.1300168,8.17508744 L58.8390851,8.17508744 C58.8718731,8.6436663 59.046057,8.99913458 59.361642,9.24150295 C59.6772269,9.48387132 60.1055143,9.60505369 60.6465171,9.60505369 C61.8104927,9.60505369 62.3924717,9.25766423 62.3924717,8.5628749 C62.3924717,8.2801118 62.2982075,8.05794413 62.1096763,7.89636521 C61.921145,7.7347863 61.6219586,7.60956452 61.212108,7.52069611 L59.9579716,7.25409224 C59.1382704,7.08443438 58.5091592,6.80975434 58.0706191,6.43004389 C57.632079,6.05033344 57.4128123,5.50097338 57.4128123,4.78194721 C57.4128123,4.06292104 57.705851,3.48326538 58.2919373,3.04296283 C58.8780236,2.60266029 59.6669741,2.38251232 60.6588125,2.38251232 C61.6260599,2.38251232 62.4191088,2.63295588 63.0379832,3.13385052 C63.6568575,3.63474515 63.9703885,4.28105112 63.9785855,5.0727878 L62.2695172,5.0727878 C62.2449262,4.71731419 62.0973822,4.42849621 61.8268808,4.2063252 C61.5563794,3.98415419 61.1588303,3.87307036 60.6342216,3.87307036 C60.1424009,3.87307036 59.7714917,3.95587831 59.5214829,4.1214967 C59.271474,4.28711508 59.1464715,4.50726305 59.1464715,4.78194721 C59.1464715,5.00815769 59.2304896,5.19801006 59.3985283,5.35151003 C59.5665671,5.50501 59.8514089,5.62619237 60.2530625,5.71506077 L61.4211308,5.95742793 C62.281817,6.13516474 62.9478141,6.42398272 63.4191423,6.82389053 C63.8904704,7.22379834 64.126131,7.79133577 64.126131,8.52651983 C64.126131,9.31825651 63.8371907,9.9423457 63.2593014,10.3988061 C62.6814121,10.8552666 61.8104927,11.0834934 60.6465171,11.0834934 Z M29.1004768,20.2476859 L31.2398861,23.4226957 L31.2398861,23.5438792 L29.2972041,23.5438792 L27.3176358,20.4415796 L25.866772,20.4415796 L25.866772,23.5438792 L24.1822946,23.5438792 L24.1822946,15.0610286 L27.9569995,15.0610286 C28.8340797,15.0610286 29.5328644,15.3155116 30.0533746,15.8244852 C30.5738848,16.3334588 30.8341361,16.9636071 30.8341361,17.714949 C30.8341361,18.3289489 30.6783952,18.8560922 30.3669087,19.2963948 C30.0554223,19.7366973 29.6332826,20.0537912 29.1004768,20.2476859 Z M25.866772,16.5515867 L25.866772,18.9631399 L27.8709313,18.9631399 C28.2807818,18.9631399 28.5881651,18.8480167 28.7930904,18.6177667 C28.9980157,18.3875168 29.1004768,18.09062 29.1004768,17.7270674 C29.1004768,17.3877517 28.9959665,17.1070125 28.7869427,16.8848415 C28.5779189,16.6626705 28.2725848,16.5515867 27.8709313,16.5515867 L25.866772,16.5515867 Z M34.0022651,23.5438792 L34.0022651,15.0610286 L39.965561,15.0610286 L39.965561,16.5515867 L35.6867425,16.5515867 L35.6867425,18.4299322 L39.5844019,18.4299322 L39.5844019,19.9083718 L35.6867425,19.9083718 L35.6867425,22.0654396 L39.965561,22.0654396 L39.965561,23.5438792 L34.0022651,23.5438792 Z M47.4616903,15.0610286 L50.4863724,23.4226957 L50.4863724,23.5438792 L48.6297586,23.5438792 L48.0395767,21.7624806 L44.6706219,21.7624806 L44.0804401,23.5438792 L42.3098945,23.5438792 L42.3098945,23.4226957 L45.3222811,15.0610286 L47.4616903,15.0610286 Z M45.1624401,20.2961593 L47.5477585,20.2961593 L46.3796902,16.7575988 L46.3305084,16.7575988 L45.1624401,20.2961593 Z M56.6300016,23.6529445 C55.3348738,23.6529445 54.3348535,23.2510229 53.6299105,22.4471678 C52.9249675,21.6433127 52.5725013,20.5991247 52.5725013,19.3145723 C52.5725013,18.021941 52.9249675,16.9716938 53.6299105,16.1637992 C54.3348535,15.3559047 55.3348738,14.9519634 56.6300016,14.9519634 C57.6874161,14.9519634 58.5521878,15.2549193 59.2243427,15.8608403 C59.8964977,16.4667612 60.2653577,17.2302101 60.3309337,18.1512099 L58.60957,18.1512099 C58.5603879,17.6583942 58.3698102,17.254453 58.0378313,16.9393741 C57.7058523,16.6242953 57.2365805,16.4667582 56.6300016,16.4667582 C55.8594826,16.4667582 55.2775035,16.7212411 54.8840469,17.2302147 C54.4905904,17.7391883 54.2938651,18.4339672 54.2938651,19.3145723 C54.2938651,20.1951774 54.4905904,20.8879366 54.8840469,21.3928707 C55.2775035,21.8978048 55.8594826,22.1502681 56.6300016,22.1502681 C57.2119894,22.1502681 57.6669167,22.0028295 57.9947972,21.707948 C58.3226776,21.4130665 58.5316983,21.0232632 58.6218654,20.5385265 L60.3309337,20.5385265 C60.2325696,21.4433684 59.8534635,22.1886399 59.1936041,22.7743635 C58.5337447,23.3600871 57.6792191,23.6529445 56.6300016,23.6529445 Z M65.1343583,23.5438792 L65.1343583,16.563705 L62.6014945,16.563705 L62.6014945,15.0610286 L69.363995,15.0610286 L69.363995,16.563705 L66.8311312,16.563705 L66.8311312,23.5438792 L65.1343583,23.5438792 Z M75.7043516,23.6529445 C74.3846327,23.6529445 73.3764155,23.2469835 72.6796695,22.4350495 C71.9829235,21.6231154 71.6345558,20.5789274 71.6345558,19.3024539 C71.6345558,18.0259805 71.9829235,16.9817924 72.6796695,16.1698584 C73.3764155,15.3579244 74.3846327,14.9519634 75.7043516,14.9519634 C77.0158734,14.9519634 78.0220414,15.3579244 78.7228859,16.1698584 C79.4237304,16.9817924 79.7741473,18.0259805 79.7741473,19.3024539 C79.7741473,20.5789274 79.4237304,21.6231154 78.7228859,22.4350495 C78.0220414,23.2469835 77.0158734,23.6529445 75.7043516,23.6529445 Z M75.7043516,22.1381497 C76.4830676,22.1381497 77.0691452,21.8856864 77.4626017,21.3807523 C77.8560582,20.8758182 78.0527836,20.183059 78.0527836,19.3024539 C78.0527836,18.4218489 77.8560582,17.7290897 77.4626017,17.2241555 C77.0691452,16.7192214 76.4830676,16.4667582 75.7043516,16.4667582 C74.9256355,16.4667582 74.339558,16.7192214 73.9461014,17.2241555 C73.5526449,17.7290897 73.3559196,18.4218489 73.3559196,19.3024539 C73.3559196,20.183059 73.5526449,20.8758182 73.9461014,21.3807523 C74.339558,21.8856864 74.9256355,22.1381497 75.7043516,22.1381497 Z M87.7252085,20.2476859 L89.8646178,23.4226957 L89.8646178,23.5438792 L87.9219358,23.5438792 L85.9423675,20.4415796 L84.4915037,20.4415796 L84.4915037,23.5438792 L82.8070263,23.5438792 L82.8070263,15.0610286 L86.5817312,15.0610286 C87.4588114,15.0610286 88.1575961,15.3155116 88.6781064,15.8244852 C89.1986166,16.3334588 89.4588678,16.9636071 89.4588678,17.714949 C89.4588678,18.3289489 89.3031269,18.8560922 88.9916405,19.2963948 C88.680154,19.7366973 88.2580143,20.0537912 87.7252085,20.2476859 Z M84.4915037,16.5515867 L84.4915037,18.9631399 L86.495663,18.9631399 C86.9055136,18.9631399 87.2128969,18.8480167 87.4178222,18.6177667 C87.6227474,18.3875168 87.7252085,18.09062 87.7252085,17.7270674 C87.7252085,17.3877517 87.6206982,17.1070125 87.4116744,16.8848415 C87.2026506,16.6626705 86.8973165,16.5515867 86.495663,16.5515867 L84.4915037,16.5515867 Z M29.1004768,7.67823477 L31.2398861,10.8532446 L31.2398861,10.9744281 L29.2972041,10.9744281 L27.3176358,7.87212849 L25.866772,7.87212849 L25.866772,10.9744281 L24.1822946,10.9744281 L24.1822946,2.49157755 L27.9569995,2.49157755 C28.8340797,2.49157755 29.5328644,2.74606052 30.0533746,3.2550341 C30.5738848,3.76400768 30.8341361,4.39415599 30.8341361,5.14549795 C30.8341361,5.75949782 30.6783952,6.28664112 30.3669087,6.72694366 C30.0554223,7.16724621 29.6332826,7.48434007 29.1004768,7.67823477 Z M25.866772,3.98213558 L25.866772,6.39368882 L27.8709313,6.39368882 C28.2807818,6.39368882 28.5881651,6.27856557 28.7930904,6.04831562 C28.9980157,5.81806566 29.1004768,5.52116886 29.1004768,5.1576163 C29.1004768,4.81830058 28.9959665,4.53756143 28.7869427,4.31539042 C28.5779189,4.09321942 28.2725848,3.98213558 27.8709313,3.98213558 L25.866772,3.98213558 Z M38.3794472,2.49157755 L41.4041293,10.8532446 L41.4041293,10.9744281 L39.5475155,10.9744281 L38.9573336,9.19302952 L35.5883788,9.19302952 L34.9981969,10.9744281 L33.2276514,10.9744281 L33.2276514,10.8532446 L36.240038,2.49157755 L38.3794472,2.49157755 Z M36.080197,7.7267082 L38.4655154,7.7267082 L37.2974471,4.18814767 L37.2482653,4.18814767 L36.080197,7.7267082 Z M44.1419173,10.9744281 L44.1419173,2.49157755 L45.8386902,2.49157755 L45.8386902,10.9744281 L44.1419173,10.9744281 Z M49.351092,10.9744281 L49.351092,2.49157755 L51.0355694,2.49157755 L51.0355694,9.48387011 L55.0070015,9.48387011 L55.0070015,10.9744281 L49.351092,10.9744281 Z M60.6465171,11.0834934 C59.5481175,11.0834934 58.6976904,10.8229513 58.09521,10.3018593 C57.4927297,9.78076727 57.1710018,9.07185042 57.1300168,8.17508744 L58.8390851,8.17508744 C58.8718731,8.6436663 59.046057,8.99913458 59.361642,9.24150295 C59.6772269,9.48387132 60.1055143,9.60505369 60.6465171,9.60505369 C61.8104927,9.60505369 62.3924717,9.25766423 62.3924717,8.5628749 C62.3924717,8.2801118 62.2982075,8.05794413 62.1096763,7.89636521 C61.921145,7.7347863 61.6219586,7.60956452 61.212108,7.52069611 L59.9579716,7.25409224 C59.1382704,7.08443438 58.5091592,6.80975434 58.0706191,6.43004389 C57.632079,6.05033344 57.4128123,5.50097338 57.4128123,4.78194721 C57.4128123,4.06292104 57.705851,3.48326538 58.2919373,3.04296283 C58.8780236,2.60266029 59.6669741,2.38251232 60.6588125,2.38251232 C61.6260599,2.38251232 62.4191088,2.63295588 63.0379832,3.13385052 C63.6568575,3.63474515 63.9703885,4.28105112 63.9785855,5.0727878 L62.2695172,5.0727878 C62.2449262,4.71731419 62.0973822,4.42849621 61.8268808,4.2063252 C61.5563794,3.98415419 61.1588303,3.87307036 60.6342216,3.87307036 C60.1424009,3.87307036 59.7714917,3.95587831 59.5214829,4.1214967 C59.271474,4.28711508 59.1464715,4.50726305 59.1464715,4.78194721 C59.1464715,5.00815769 59.2304896,5.19801006 59.3985283,5.35151003 C59.5665671,5.50501 59.8514089,5.62619237 60.2530625,5.71506077 L61.4211308,5.95742793 C62.281817,6.13516474 62.9478141,6.42398272 63.4191423,6.82389053 C63.8904704,7.22379834 64.126131,7.79133577 64.126131,8.52651983 C64.126131,9.31825651 63.8371907,9.9423457 63.2593014,10.3988061 C62.6814121,10.8552666 61.8104927,11.0834934 60.6465171,11.0834934 Z M29.1004768,20.2476859 L31.2398861,23.4226957 L31.2398861,23.5438792 L29.2972041,23.5438792 L27.3176358,20.4415796 L25.866772,20.4415796 L25.866772,23.5438792 L24.1822946,23.5438792 L24.1822946,15.0610286 L27.9569995,15.0610286 C28.8340797,15.0610286 29.5328644,15.3155116 30.0533746,15.8244852 C30.5738848,16.3334588 30.8341361,16.9636071 30.8341361,17.714949 C30.8341361,18.3289489 30.6783952,18.8560922 30.3669087,19.2963948 C30.0554223,19.7366973 29.6332826,20.0537912 29.1004768,20.2476859 Z M25.866772,16.5515867 L25.866772,18.9631399 L27.8709313,18.9631399 C28.2807818,18.9631399 28.5881651,18.8480167 28.7930904,18.6177667 C28.9980157,18.3875168 29.1004768,18.09062 29.1004768,17.7270674 C29.1004768,17.3877517 28.9959665,17.1070125 28.7869427,16.8848415 C28.5779189,16.6626705 28.2725848,16.5515867 27.8709313,16.5515867 L25.866772,16.5515867 Z M34.0022651,23.5438792 L34.0022651,15.0610286 L39.965561,15.0610286 L39.965561,16.5515867 L35.6867425,16.5515867 L35.6867425,18.4299322 L39.5844019,18.4299322 L39.5844019,19.9083718 L35.6867425,19.9083718 L35.6867425,22.0654396 L39.965561,22.0654396 L39.965561,23.5438792 L34.0022651,23.5438792 Z M47.4616903,15.0610286 L50.4863724,23.4226957 L50.4863724,23.5438792 L48.6297586,23.5438792 L48.0395767,21.7624806 L44.6706219,21.7624806 L44.0804401,23.5438792 L42.3098945,23.5438792 L42.3098945,23.4226957 L45.3222811,15.0610286 L47.4616903,15.0610286 Z M45.1624401,20.2961593 L47.5477585,20.2961593 L46.3796902,16.7575988 L46.3305084,16.7575988 L45.1624401,20.2961593 Z M56.6300016,23.6529445 C55.3348738,23.6529445 54.3348535,23.2510229 53.6299105,22.4471678 C52.9249675,21.6433127 52.5725013,20.5991247 52.5725013,19.3145723 C52.5725013,18.021941 52.9249675,16.9716938 53.6299105,16.1637992 C54.3348535,15.3559047 55.3348738,14.9519634 56.6300016,14.9519634 C57.6874161,14.9519634 58.5521878,15.2549193 59.2243427,15.8608403 C59.8964977,16.4667612 60.2653577,17.2302101 60.3309337,18.1512099 L58.60957,18.1512099 C58.5603879,17.6583942 58.3698102,17.254453 58.0378313,16.9393741 C57.7058523,16.6242953 57.2365805,16.4667582 56.6300016,16.4667582 C55.8594826,16.4667582 55.2775035,16.7212411 54.8840469,17.2302147 C54.4905904,17.7391883 54.2938651,18.4339672 54.2938651,19.3145723 C54.2938651,20.1951774 54.4905904,20.8879366 54.8840469,21.3928707 C55.2775035,21.8978048 55.8594826,22.1502681 56.6300016,22.1502681 C57.2119894,22.1502681 57.6669167,22.0028295 57.9947972,21.707948 C58.3226776,21.4130665 58.5316983,21.0232632 58.6218654,20.5385265 L60.3309337,20.5385265 C60.2325696,21.4433684 59.8534635,22.1886399 59.1936041,22.7743635 C58.5337447,23.3600871 57.6792191,23.6529445 56.6300016,23.6529445 Z M65.1343583,23.5438792 L65.1343583,16.563705 L62.6014945,16.563705 L62.6014945,15.0610286 L69.363995,15.0610286 L69.363995,16.563705 L66.8311312,16.563705 L66.8311312,23.5438792 L65.1343583,23.5438792 Z M75.7043516,23.6529445 C74.3846327,23.6529445 73.3764155,23.2469835 72.6796695,22.4350495 C71.9829235,21.6231154 71.6345558,20.5789274 71.6345558,19.3024539 C71.6345558,18.0259805 71.9829235,16.9817924 72.6796695,16.1698584 C73.3764155,15.3579244 74.3846327,14.9519634 75.7043516,14.9519634 C77.0158734,14.9519634 78.0220414,15.3579244 78.7228859,16.1698584 C79.4237304,16.9817924 79.7741473,18.0259805 79.7741473,19.3024539 C79.7741473,20.5789274 79.4237304,21.6231154 78.7228859,22.4350495 C78.0220414,23.2469835 77.0158734,23.6529445 75.7043516,23.6529445 Z M75.7043516,22.1381497 C76.4830676,22.1381497 77.0691452,21.8856864 77.4626017,21.3807523 C77.8560582,20.8758182 78.0527836,20.183059 78.0527836,19.3024539 C78.0527836,18.4218489 77.8560582,17.7290897 77.4626017,17.2241555 C77.0691452,16.7192214 76.4830676,16.4667582 75.7043516,16.4667582 C74.9256355,16.4667582 74.339558,16.7192214 73.9461014,17.2241555 C73.5526449,17.7290897 73.3559196,18.4218489 73.3559196,19.3024539 C73.3559196,20.183059 73.5526449,20.8758182 73.9461014,21.3807523 C74.339558,21.8856864 74.9256355,22.1381497 75.7043516,22.1381497 Z M87.7252085,20.2476859 L89.8646178,23.4226957 L89.8646178,23.5438792 L87.9219358,23.5438792 L85.9423675,20.4415796 L84.4915037,20.4415796 L84.4915037,23.5438792 L82.8070263,23.5438792 L82.8070263,15.0610286 L86.5817312,15.0610286 C87.4588114,15.0610286 88.1575961,15.3155116 88.6781064,15.8244852 C89.1986166,16.3334588 89.4588678,16.9636071 89.4588678,17.714949 C89.4588678,18.3289489 89.3031269,18.8560922 88.9916405,19.2963948 C88.680154,19.7366973 88.2580143,20.0537912 87.7252085,20.2476859 Z M84.4915037,16.5515867 L84.4915037,18.9631399 L86.495663,18.9631399 C86.9055136,18.9631399 87.2128969,18.8480167 87.4178222,18.6177667 C87.6227474,18.3875168 87.7252085,18.09062 87.7252085,17.7270674 C87.7252085,17.3877517 87.6206982,17.1070125 87.4116744,16.8848415 C87.2026506,16.6626705 86.8973165,16.5515867 86.495663,16.5515867 L84.4915037,16.5515867 Z M29.1004768,7.67823477 L31.2398861,10.8532446 L31.2398861,10.9744281 L29.2972041,10.9744281 L27.3176358,7.87212849 L25.866772,7.87212849 L25.866772,10.9744281 L24.1822946,10.9744281 L24.1822946,2.49157755 L27.9569995,2.49157755 C28.8340797,2.49157755 29.5328644,2.74606052 30.0533746,3.2550341 C30.5738848,3.76400768 30.8341361,4.39415599 30.8341361,5.14549795 C30.8341361,5.75949782 30.6783952,6.28664112 30.3669087,6.72694366 C30.0554223,7.16724621 29.6332826,7.48434007 29.1004768,7.67823477 Z M25.866772,3.98213558 L25.866772,6.39368882 L27.8709313,6.39368882 C28.2807818,6.39368882 28.5881651,6.27856557 28.7930904,6.04831562 C28.9980157,5.81806566 29.1004768,5.52116886 29.1004768,5.1576163 C29.1004768,4.81830058 28.9959665,4.53756143 28.7869427,4.31539042 C28.5779189,4.09321942 28.2725848,3.98213558 27.8709313,3.98213558 L25.866772,3.98213558 Z M38.3794472,2.49157755 L41.4041293,10.8532446 L41.4041293,10.9744281 L39.5475155,10.9744281 L38.9573336,9.19302952 L35.5883788,9.19302952 L34.9981969,10.9744281 L33.2276514,10.9744281 L33.2276514,10.8532446 L36.240038,2.49157755 L38.3794472,2.49157755 Z M36.080197,7.7267082 L38.4655154,7.7267082 L37.2974471,4.18814767 L37.2482653,4.18814767 L36.080197,7.7267082 Z M44.1419173,10.9744281 L44.1419173,2.49157755 L45.8386902,2.49157755 L45.8386902,10.9744281 L44.1419173,10.9744281 Z M49.351092,10.9744281 L49.351092,2.49157755 L51.0355694,2.49157755 L51.0355694,9.48387011 L55.0070015,9.48387011 L55.0070015,10.9744281 L49.351092,10.9744281 Z M60.6465171,11.0834934 C59.5481175,11.0834934 58.6976904,10.8229513 58.09521,10.3018593 C57.4927297,9.78076727 57.1710018,9.07185042 57.1300168,8.17508744 L58.8390851,8.17508744 C58.8718731,8.6436663 59.046057,8.99913458 59.361642,9.24150295 C59.6772269,9.48387132 60.1055143,9.60505369 60.6465171,9.60505369 C61.8104927,9.60505369 62.3924717,9.25766423 62.3924717,8.5628749 C62.3924717,8.2801118 62.2982075,8.05794413 62.1096763,7.89636521 C61.921145,7.7347863 61.6219586,7.60956452 61.212108,7.52069611 L59.9579716,7.25409224 C59.1382704,7.08443438 58.5091592,6.80975434 58.0706191,6.43004389 C57.632079,6.05033344 57.4128123,5.50097338 57.4128123,4.78194721 C57.4128123,4.06292104 57.705851,3.48326538 58.2919373,3.04296283 C58.8780236,2.60266029 59.6669741,2.38251232 60.6588125,2.38251232 C61.6260599,2.38251232 62.4191088,2.63295588 63.0379832,3.13385052 C63.6568575,3.63474515 63.9703885,4.28105112 63.9785855,5.0727878 L62.2695172,5.0727878 C62.2449262,4.71731419 62.0973822,4.42849621 61.8268808,4.2063252 C61.5563794,3.98415419 61.1588303,3.87307036 60.6342216,3.87307036 C60.1424009,3.87307036 59.7714917,3.95587831 59.5214829,4.1214967 C59.271474,4.28711508 59.1464715,4.50726305 59.1464715,4.78194721 C59.1464715,5.00815769 59.2304896,5.19801006 59.3985283,5.35151003 C59.5665671,5.50501 59.8514089,5.62619237 60.2530625,5.71506077 L61.4211308,5.95742793 C62.281817,6.13516474 62.9478141,6.42398272 63.4191423,6.82389053 C63.8904704,7.22379834 64.126131,7.79133577 64.126131,8.52651983 C64.126131,9.31825651 63.8371907,9.9423457 63.2593014,10.3988061 C62.6814121,10.8552666 61.8104927,11.0834934 60.6465171,11.0834934 Z M29.1004768,20.2476859 L31.2398861,23.4226957 L31.2398861,23.5438792 L29.2972041,23.5438792 L27.3176358,20.4415796 L25.866772,20.4415796 L25.866772,23.5438792 L24.1822946,23.5438792 L24.1822946,15.0610286 L27.9569995,15.0610286 C28.8340797,15.0610286 29.5328644,15.3155116 30.0533746,15.8244852 C30.5738848,16.3334588 30.8341361,16.9636071 30.8341361,17.714949 C30.8341361,18.3289489 30.6783952,18.8560922 30.3669087,19.2963948 C30.0554223,19.7366973 29.6332826,20.0537912 29.1004768,20.2476859 Z M25.866772,16.5515867 L25.866772,18.9631399 L27.8709313,18.9631399 C28.2807818,18.9631399 28.5881651,18.8480167 28.7930904,18.6177667 C28.9980157,18.3875168 29.1004768,18.09062 29.1004768,17.7270674 C29.1004768,17.3877517 28.9959665,17.1070125 28.7869427,16.8848415 C28.5779189,16.6626705 28.2725848,16.5515867 27.8709313,16.5515867 L25.866772,16.5515867 Z M34.0022651,23.5438792 L34.0022651,15.0610286 L39.965561,15.0610286 L39.965561,16.5515867 L35.6867425,16.5515867 L35.6867425,18.4299322 L39.5844019,18.4299322 L39.5844019,19.9083718 L35.6867425,19.9083718 L35.6867425,22.0654396 L39.965561,22.0654396 L39.965561,23.5438792 L34.0022651,23.5438792 Z M47.4616903,15.0610286 L50.4863724,23.4226957 L50.4863724,23.5438792 L48.6297586,23.5438792 L48.0395767,21.7624806 L44.6706219,21.7624806 L44.0804401,23.5438792 L42.3098945,23.5438792 L42.3098945,23.4226957 L45.3222811,15.0610286 L47.4616903,15.0610286 Z M45.1624401,20.2961593 L47.5477585,20.2961593 L46.3796902,16.7575988 L46.3305084,16.7575988 L45.1624401,20.2961593 Z M56.6300016,23.6529445 C55.3348738,23.6529445 54.3348535,23.2510229 53.6299105,22.4471678 C52.9249675,21.6433127 52.5725013,20.5991247 52.5725013,19.3145723 C52.5725013,18.021941 52.9249675,16.9716938 53.6299105,16.1637992 C54.3348535,15.3559047 55.3348738,14.9519634 56.6300016,14.9519634 C57.6874161,14.9519634 58.5521878,15.2549193 59.2243427,15.8608403 C59.8964977,16.4667612 60.2653577,17.2302101 60.3309337,18.1512099 L58.60957,18.1512099 C58.5603879,17.6583942 58.3698102,17.254453 58.0378313,16.9393741 C57.7058523,16.6242953 57.2365805,16.4667582 56.6300016,16.4667582 C55.8594826,16.4667582 55.2775035,16.7212411 54.8840469,17.2302147 C54.4905904,17.7391883 54.2938651,18.4339672 54.2938651,19.3145723 C54.2938651,20.1951774 54.4905904,20.8879366 54.8840469,21.3928707 C55.2775035,21.8978048 55.8594826,22.1502681 56.6300016,22.1502681 C57.2119894,22.1502681 57.6669167,22.0028295 57.9947972,21.707948 C58.3226776,21.4130665 58.5316983,21.0232632 58.6218654,20.5385265 L60.3309337,20.5385265 C60.2325696,21.4433684 59.8534635,22.1886399 59.1936041,22.7743635 C58.5337447,23.3600871 57.6792191,23.6529445 56.6300016,23.6529445 Z M65.1343583,23.5438792 L65.1343583,16.563705 L62.6014945,16.563705 L62.6014945,15.0610286 L69.363995,15.0610286 L69.363995,16.563705 L66.8311312,16.563705 L66.8311312,23.5438792 L65.1343583,23.5438792 Z M75.7043516,23.6529445 C74.3846327,23.6529445 73.3764155,23.2469835 72.6796695,22.4350495 C71.9829235,21.6231154 71.6345558,20.5789274 71.6345558,19.3024539 C71.6345558,18.0259805 71.9829235,16.9817924 72.6796695,16.1698584 C73.3764155,15.3579244 74.3846327,14.9519634 75.7043516,14.9519634 C77.0158734,14.9519634 78.0220414,15.3579244 78.7228859,16.1698584 C79.4237304,16.9817924 79.7741473,18.0259805 79.7741473,19.3024539 C79.7741473,20.5789274 79.4237304,21.6231154 78.7228859,22.4350495 C78.0220414,23.2469835 77.0158734,23.6529445 75.7043516,23.6529445 Z M75.7043516,22.1381497 C76.4830676,22.1381497 77.0691452,21.8856864 77.4626017,21.3807523 C77.8560582,20.8758182 78.0527836,20.183059 78.0527836,19.3024539 C78.0527836,18.4218489 77.8560582,17.7290897 77.4626017,17.2241555 C77.0691452,16.7192214 76.4830676,16.4667582 75.7043516,16.4667582 C74.9256355,16.4667582 74.339558,16.7192214 73.9461014,17.2241555 C73.5526449,17.7290897 73.3559196,18.4218489 73.3559196,19.3024539 C73.3559196,20.183059 73.5526449,20.8758182 73.9461014,21.3807523 C74.339558,21.8856864 74.9256355,22.1381497 75.7043516,22.1381497 Z M87.7252085,20.2476859 L89.8646178,23.4226957 L89.8646178,23.5438792 L87.9219358,23.5438792 L85.9423675,20.4415796 L84.4915037,20.4415796 L84.4915037,23.5438792 L82.8070263,23.5438792 L82.8070263,15.0610286 L86.5817312,15.0610286 C87.4588114,15.0610286 88.1575961,15.3155116 88.6781064,15.8244852 C89.1986166,16.3334588 89.4588678,16.9636071 89.4588678,17.714949 C89.4588678,18.3289489 89.3031269,18.8560922 88.9916405,19.2963948 C88.680154,19.7366973 88.2580143,20.0537912 87.7252085,20.2476859 Z M84.4915037,16.5515867 L84.4915037,18.9631399 L86.495663,18.9631399 C86.9055136,18.9631399 87.2128969,18.8480167 87.4178222,18.6177667 C87.6227474,18.3875168 87.7252085,18.09062 87.7252085,17.7270674 C87.7252085,17.3877517 87.6206982,17.1070125 87.4116744,16.8848415 C87.2026506,16.6626705 86.8973165,16.5515867 86.495663,16.5515867 L84.4915037,16.5515867 Z" id="Rails-Reactor-Copy-24" fill="#0F0F0F"></path>
                </g>
            </g>
        </g>
    </g>
</svg>